HIERARCHY
ROOT hip
{
  OFFSET 0 0 0
  CHANNELS 6 Xposition Yposition Zposition Zrotation Yrotation Xrotation
  JOINT abdomen
  {
    OFFSET 0 20.6881 -0.73152
    CHANNELS 3 Zrotation Xrotation Yrotation
    JOINT chest
    {
      OFFSET 0 11.7043 -0.48768
      CHANNELS 3 Zrotation Xrotation Yrotation
      JOINT neck
      {
        OFFSET 0 22.1894 -2.19456
        CHANNELS 3 Zrotation Xrotation Yrotation
        JOINT head
        {
          OFFSET -0.24384 7.07133 1.2192
          CHANNELS 3 Zrotation Xrotation Yrotation
          JOINT leftEye
          {
            OFFSET 4.14528 8.04674 8.04672
            CHANNELS 3 Zrotation Xrotation Yrotation
            End Site
            {
              OFFSET 1 0 0
            }
          }
          JOINT rightEye
          {
            OFFSET -3.6576 8.04674 8.04672
            CHANNELS 3 Zrotation Xrotation Yrotation
            End Site
            {
              OFFSET 1 0 0
            }
          }
        }
      }
      JOINT rCollar
      {
        OFFSET -2.68224 19.2634 -4.8768
        CHANNELS 3 Zrotation Xrotation Yrotation
        JOINT rShldr
        {
          OFFSET -8.77824 -1.95073 1.46304
          CHANNELS 3 Zrotation Xrotation Yrotation
          JOINT rForeArm
          {
            OFFSET -28.1742 -1.7115 0.48768
            CHANNELS 3 Zrotation Xrotation Yrotation
            JOINT rHand
            {
              OFFSET -22.5879 0.773209 7.07136
              CHANNELS 3 Zrotation Xrotation Yrotation
              JOINT rThumb1
              {
                OFFSET -1.2192 -0.487915 3.41376
                CHANNELS 3 Zrotation Xrotation Yrotation
                JOINT rThumb2
                {
                  OFFSET -3.37035 -0.52449 3.41376
                  CHANNELS 3 Zrotation Xrotation Yrotation
                  End Site
                  {
                    OFFSET -1.78271 -1.18214 1.43049
                  }
                }
              }
              JOINT rIndex1
              {
                OFFSET -7.75947 0.938293 5.60832
                CHANNELS 3 Zrotation Xrotation Yrotation
                JOINT rIndex2
                {
                  OFFSET -2.54057 -0.884171 1.56538
                  CHANNELS 3 Zrotation Xrotation Yrotation
                  End Site
                  {
                    OFFSET -1.62519 -0.234802 1.16502
                  }
                }
              }
              JOINT rMid1
              {
                OFFSET -8.24714 1.18213 3.41376
                CHANNELS 3 Zrotation Xrotation Yrotation
                JOINT rMid2
                {
                  OFFSET -3.10165 -0.590103 1.0647
                  CHANNELS 3 Zrotation Xrotation Yrotation
                  End Site
                  {
                    OFFSET -2.48547 -0.328903 0.83742
                  }
                }
              }
              JOINT rRing1
              {
                OFFSET -8.82822 0.546677 1.51678
                CHANNELS 3 Zrotation Xrotation Yrotation
                JOINT rRing2
                {
                  OFFSET -2.60934 -0.819778 -0.0198488
                  CHANNELS 3 Zrotation Xrotation Yrotation
                  End Site
                  {
                    OFFSET -2.33842 -0.294052 0.168128
                  }
                }
              }
              JOINT rPinky1
              {
                OFFSET -8.27202 -0.0477905 -0.4584
                CHANNELS 3 Zrotation Xrotation Yrotation
                JOINT rPinky2
                {
                  OFFSET -1.82734 -0.647385 -0.700984
                  CHANNELS 3 Zrotation Xrotation Yrotation
                  End Site
                  {
                    OFFSET -1.69225 -0.51767 -0.607171
                  }
                }
              }
            }
          }
        }
      }
      JOINT lCollar
      {
        OFFSET 2.68224 19.2634 -4.8768
        CHANNELS 3 Zrotation Xrotation Yrotation
        JOINT lShldr
        {
          OFFSET 8.77824 -1.95073 1.46304
          CHANNELS 3 Zrotation Xrotation Yrotation
          JOINT lForeArm
          {
            OFFSET 28.1742 -1.7115 0.48768
            CHANNELS 3 Zrotation Xrotation Yrotation
            JOINT lHand
            {
              OFFSET 22.5879 0.773209 7.07136
              CHANNELS 3 Zrotation Xrotation Yrotation
              JOINT lThumb1
              {
                OFFSET 1.2192 -0.487915 3.41376
                CHANNELS 3 Zrotation Xrotation Yrotation
                JOINT lThumb2
                {
                  OFFSET 3.37035 -0.52449 3.41376
                  CHANNELS 3 Zrotation Xrotation Yrotation
                  End Site
                  {
                    OFFSET 1.78271 -1.18214 1.43049
                  }
                }
              }
              JOINT lIndex1
              {
                OFFSET 7.75947 0.938293 5.60832
                CHANNELS 3 Zrotation Xrotation Yrotation
                JOINT lIndex2
                {
                  OFFSET 2.54057 -0.884171 1.56538
                  CHANNELS 3 Zrotation Xrotation Yrotation
                  End Site
                  {
                    OFFSET 1.62519 -0.234802 1.16502
                  }
                }
              }
              JOINT lMid1
              {
                OFFSET 8.24714 1.18213 3.41376
                CHANNELS 3 Zrotation Xrotation Yrotation
                JOINT lMid2
                {
                  OFFSET 3.10165 -0.590103 1.0647
                  CHANNELS 3 Zrotation Xrotation Yrotation
                  End Site
                  {
                    OFFSET 2.48547 -0.328903 0.83742
                  }
                }
              }
              JOINT lRing1
              {
                OFFSET 8.82822 0.546677 1.51678
                CHANNELS 3 Zrotation Xrotation Yrotation
                JOINT lRing2
                {
                  OFFSET 2.60934 -0.819778 -0.0198488
                  CHANNELS 3 Zrotation Xrotation Yrotation
                  End Site
                  {
                    OFFSET 2.33842 -0.294052 0.168128
                  }
                }
              }
              JOINT lPinky1
              {
                OFFSET 8.27202 -0.0477905 -0.4584
                CHANNELS 3 Zrotation Xrotation Yrotation
                JOINT lPinky2
                {
                  OFFSET 1.82734 -0.647385 -0.700984
                  CHANNELS 3 Zrotation Xrotation Yrotation
                  End Site
                  {
                    OFFSET 1.69225 -0.51767 -0.607171
                  }
                }
              }
            }
          }
        }
      }
    }
  }
  JOINT rButtock
  {
    OFFSET -8.77824 4.35084 1.2192
    CHANNELS 3 Zrotation Xrotation Yrotation
    JOINT rThigh
    {
      OFFSET 0 -1.70687 -2.19456
      CHANNELS 3 Zrotation Xrotation Yrotation
      JOINT rShin
      {
        OFFSET 0 -36.8199 0.73152
        CHANNELS 3 Zrotation Xrotation Yrotation
        JOINT rFoot
        {
          OFFSET 0.73152 -45.1104 -5.12064
          CHANNELS 3 Zrotation Xrotation Yrotation
          End Site
          {
            OFFSET -1.1221 -3.69964 12.103
          }
        }
      }
    }
  }
  JOINT lButtock
  {
    OFFSET 8.77824 4.35084 1.2192
    CHANNELS 3 Zrotation Xrotation Yrotation
    JOINT lThigh
    {
      OFFSET 0 -1.70687 -2.19456
      CHANNELS 3 Zrotation Xrotation Yrotation
      JOINT lShin
      {
        OFFSET 0 -36.8199 0.73152
        CHANNELS 3 Zrotation Xrotation Yrotation
        JOINT lFoot
        {
          OFFSET -0.73152 -45.1104 -5.12064
          CHANNELS 3 Zrotation Xrotation Yrotation
          End Site
          {
            OFFSET 1.1221 -3.69964 12.103
          }
        }
      }
    }
  }
}
MOTION
Frames:	6
Frame Time:	0.03333
-17.3589 40.0249 -9.002400000000002 -166.43472 71.235561 -157.640074 0.063191 13.935071 31.211401 -8.77869 -8.574507 -10.785061 -9.015894 22.714474 -72.235807 31.742461 5.84908 116.081272 7.601602 -1.007796 -15.08258 6.514367 0.412247 7.234253 6.540942 -44.758841 -5.640584 -127.054032 19.515489 -169.672565 -115.403386 -0.357134 -16.46819 27.710513 -51.92864 17.142797 1.464709 4.294017 5.35207 -163.517421 -63.044433 119.785443 4.695845 -9.929492 -4.779554 -5.436087 11.190167 -2.240569 -30.717994 46.480028 28.779009 -1.085305 24.047378 0.135089 -37.516794 -63.792042 -59.817143 -149.617202 -30.290207 167.357075 -15.411104 -7.333298 -2.143147 -139.501324 35.97977 -149.62472 12.220978 43.23492 -12.156398 -14.857689 19.667761 -54.82698 122.074748 1.549951 27.094591 -143.607703 -78.209004 -123.420505 -92.835676 -49.842796 -40.804488 78.561962 36.56158 -44.486232 -83.599559 -80.271483 -34.124541 -163.083016 -58.540508 -81.158596 147.870166 41.41388 -132.849144 0.025492 -40.650007 4.361636 2.04002 -26.734716 4.945179 -7.242854 -0.069954 0.278285 28.748424 -36.027047 27.536907 140.538434 55.672013 155.433166 -1.822931 -0.139007 -1.81761 -85.095628 -44.77894 -86.541237 -162.792283 64.589514 -104.161054 -33.663303 6.818033 -99.070591 -0.072392 -6.541687 0.084223 104.072636 -52.090928 23.175779 -113.690978 27.684388 6.886019 174.104119 15.090796 -90.185195
-17.7942 40.3902 -9.131599999999999 -165.91132 71.392425 -156.883859 0.070543 13.948019 37.79786 -9.690637 -7.636093 -17.054807 4.3061 13.356946 21.798774 -5.749569 -18.740503 20.49944 5.977038 -0.812982 -15.47778 5.805107 0.357594 7.04392 -9.441676 31.66597 12.157947 -143.06495 -16.780905 135.188168 -174.997555 8.199849 -78.524058 -9.169176 32.816855 1.92456 -162.764392 -6.997884 86.161687 89.943686 -62.031737 56.079636 -90.924591 43.451215 76.162864 -168.659872 -35.873313 123.203584 2.076934 0.224156 4.068326 178.438673 -68.099299 146.98094 -138.997181 3.24649 -174.025069 32.09896 49.888618 -18.917048 -147.084592 -17.439268 -130.776498 -29.513712 -24.406503 -24.902064 156.570148 -4.782126 -164.457288 35.406846 16.4245 7.104269 -32.455284 -64.844393 118.964461 161.550284 24.330294 -135.414581 93.762736 36.866664 -53.269128 132.28416 -12.93835 -74.314575 149.773656 -16.773845 -126.978612 71.262912 72.205633 -62.967305 -47.54281 -84.537426 -24.514568 150.935743 -6.229458 -149.924108 2.577645 -0.677252 -4.268696 -6.27332 24.306726 -0.234964 -10.471197 31.152863 -5.312621 140.726887 58.75945 175.376785 161.796925 75.44648 14.939805 136.929518 -7.345028 -180.0 -173.121578 -64.585642 96.857771 -58.631806 -49.426126 -124.913123 179.62121 82.122857 -0.0 -143.025015 -19.447865 39.20022 113.159957 25.885203 -16.819011 -30.622836 12.877337 -89.769069
-18.1436 40.379599999999996 -9.319700000000001 -165.392105 71.238937 -156.782609 0.022011 14.01285 42.389411 -9.995558 -6.803808 -22.102658 -0.234785 33.18707 -156.462877 9.705345 38.796002 -160.027815 2.215164 -0.447559 -22.84225 7.168245 0.503739 8.029156 2.331086 -10.80407 0.370631 -7.243237 72.707411 65.642439 -12.424626 -40.890791 95.00532 -4.291626 19.968764 0.229564 -67.501333 35.276099 39.685043 -141.659482 -27.342713 95.152584 87.133817 -77.571158 38.422772 -66.670793 42.124809 53.577032 18.154465 -36.039843 2.730417 -169.455527 2.847167 146.8957 -138.090403 -10.794035 -170.911746 84.396214 84.866811 -60.961554 -162.924914 12.442391 -142.595901 -3.326893 45.298152 5.571173 158.036324 -30.543429 -170.285527 -150.126849 20.671788 155.808686 78.867057 -46.6059 -48.508111 -17.294098 -71.354899 -3.624433 154.683281 6.585393 -87.321212 -16.297525 -57.597326 -14.578862 77.005329 48.81671 -64.136891 10.111302 1.502483 13.973812 6.720547 -0.247369 4.539665 177.830029 -42.102808 -128.076039 145.857101 5.64721 -174.818384 130.913972 82.442646 -150.585144 143.398724 9.384696 138.815911 12.388938 -10.595532 17.809105 0.518809 -0.722293 -0.660484 -87.428628 -42.577962 -0.0 121.664163 16.403074 82.130914 72.738691 15.198063 160.487259 -0.137755 -5.579182 0.162884 105.035375 -54.343282 -180.0 117.625183 -10.448108 93.494493 21.848123 33.676899 166.092333
-18.4708 40.301500000000004 -9.5191 -164.79644 70.829544 -156.597935 3.573018 10.624133 -134.716807 10.110776 1.46827 154.523587 3.903726 13.858727 22.080847 -3.478597 -19.756928 24.029273 -0.021835 0.005096 -26.274003 7.667436 0.72016 10.715684 -148.239218 21.286617 151.941295 78.95842 -80.29217 111.044862 33.961658 -15.437402 121.878945 -33.781912 65.189057 18.902656 -17.2699 18.849699 9.999594 -148.529265 -39.276106 110.735431 -132.346831 13.441278 112.256842 -52.80178 60.190641 49.678868 2.233167 0.466478 4.224789 0.463936 0.77043 -7.86844 -138.089769 -10.078298 -171.41078 -138.651202 -22.111142 -170.19399 -95.073883 -51.168486 -72.947281 18.95776 14.50076 -22.675721 3.905461 -61.839595 20.097755 -15.580196 -41.473803 41.400086 25.215984 61.957568 -137.271996 4.84665 -28.682519 5.867402 173.785603 -12.072571 -89.509663 -29.724629 -71.77873 -16.265077 11.64957 21.659038 -3.34348 178.432293 -4.461902 -101.394049 1.532352 -25.778128 8.695828 162.511894 -35.666328 -138.326582 145.306439 -1.317502 -177.741745 -15.544256 -24.063467 12.645328 145.723637 14.007472 140.545382 147.620788 -4.676052 127.386212 0.005171 -0.57122 0.002573 -84.491581 -42.670703 -86.260257 -149.025355 56.106953 -16.392234 -133.944912 26.360283 -138.737016 14.518584 -2.915398 13.453733 97.853841 -64.490114 -81.847089 -143.440701 -58.817637 149.688888 153.909562 61.552937 104.025995
-18.8231 40.2155 -9.7083 -164.159226 70.563887 -156.190391 2.101056 14.649711 -0.446866 -4.281012 -12.310742 19.604893 -4.94107 31.791593 -130.047784 21.568721 34.133665 173.669202 -0.465069 0.115584 -27.913904 7.851705 0.890123 12.915837 -7.267996 25.523896 11.035954 109.967064 -50.72162 65.258592 -176.496328 -83.891347 39.800086 164.123854 -29.016475 141.565308 9.791019 -2.239783 1.800959 -123.21751 4.936314 98.69905 -160.293246 -37.720187 123.950912 108.946552 -56.626226 41.828784 -40.338021 51.251684 37.244345 -168.428349 -49.542659 149.091706 6.202454 0.305785 -3.975788 8.386707 -56.118344 3.783003 -166.347317 9.257706 -138.785366 -26.218281 3.802886 -5.352486 156.766234 -2.792062 -165.377406 112.67758 -79.821959 79.238722 54.474117 56.744658 95.794188 177.260923 -22.514486 -145.734689 171.390117 -9.432454 -89.571931 -1.884919 -60.599348 0.276621 0.255463 1.554177 6.22172 -3.744001 -6.566129 -14.531105 -86.168476 -87.071153 -64.152749 157.64451 -55.672097 -158.99592 144.561464 5.698896 -176.045912 66.174577 -76.542435 95.873928 -7.859404 23.949173 -4.951592 50.258714 -66.606755 52.130845 162.21861 75.354498 12.0797 137.674978 -2.709879 -87.02827 -106.219759 0.7095 107.503188 -15.771578 -19.420872 -24.194123 0.149738 -4.505072 1.905648 108.438091 -54.862403 -155.097829 117.641558 -38.070038 8.565607 -176.442599 -17.647703 85.67982
-19.2244 40.124300000000005 -9.8848 -163.626239 70.428405 -155.713695 4.216321 10.834689 -128.305646 10.484041 0.442033 147.708729 3.437291 14.076407 19.561635 -1.600157 -20.637604 27.567533 0.273693 -0.069373 -28.446293 7.620258 0.917758 13.715094 7.948171 -45.978923 -4.407593 -120.79674 -13.375448 -167.493781 18.659346 46.530772 -151.647331 169.752878 -15.112196 144.794321 -112.330687 29.185949 70.795011 -32.711457 -2.665965 27.724013 -6.273604 13.390942 4.424408 -170.230251 -2.88643 124.610987 -105.190963 54.328353 98.270988 -36.023586 59.662905 36.992601 6.727228 9.466813 -1.391486 -88.207517 75.453557 87.047918 -145.201795 -27.506399 -118.572244 -136.223151 -14.09069 -103.506566 156.846055 -1.714621 -165.18753 37.75546 6.874097 6.573145 -155.352825 14.778405 56.028744 20.67591 19.876753 -3.452806 166.75655 -4.482878 -89.43589 132.151525 15.031481 -69.935944 17.191582 26.826538 -6.998391 166.868314 8.194317 -99.677125 15.408417 26.518089 -0.919989 115.855025 40.171552 -106.617319 73.763632 70.330936 -91.434642 168.492832 64.128596 178.894801 2.240944 -2.434674 2.991304 106.448202 77.720339 -157.229236 13.20464 2.522907 13.436087 -99.422941 -30.05856 163.729506 -115.787431 -26.795812 171.895979 -43.687165 85.352525 -57.125891 -1.099779 -4.639796 1.320716 108.599069 -52.072653 23.239979 -111.387974 26.052015 16.595884 177.554917 -28.23175 -90.984784
